<?xml version="1.0" encoding="UTF-8"?>
<svg width="20px" height="21px" viewBox="0 0 20 21" version="1.1" xmlns="http://www.w3.org/2000/svg" xmlns:xlink="http://www.w3.org/1999/xlink">
	<g id="Artboard" transform="translate(-7.000000, -74.000000)">
		<path d="M13.640625,91.7544643 C13.640625,91.0104129 13.0267919,90.6383929 11.7991071,90.6383929 C10.623506,90.6383929 10.0357143,91.0252938 10.0357143,91.7991071 C10.0357143,92.550599 10.6755888,92.9263393 11.9553571,92.9263393 C13.0788747,92.9263393 13.640625,92.5357182 13.640625,91.7544643 Z M12.9821429,83.328125 C12.9821429,82.8742537 12.8705368,82.4947932 12.6473214,82.1897321 C12.424106,81.8846711 12.0930081,81.7321429 11.6540179,81.7321429 C10.7313942,81.7321429 10.2700893,82.271572 10.2700893,83.3504464 C10.2700893,84.3549157 10.7313942,84.8571429 11.6540179,84.8571429 C12.539439,84.8571429 12.9821429,84.3474753 12.9821429,83.328125 Z M15.984375,79.7120536 L15.984375,81.9665179 C15.7165165,82.055804 15.4226206,82.1376484 15.1026786,82.2120536 C15.2217268,82.5319956 15.28125,82.8444925 15.28125,83.1495536 C15.28125,84.0944988 15.0096753,84.8999223 14.4665179,85.5658482 C13.9233604,86.2317742 13.1904808,86.6502968 12.2678571,86.8214286 C11.9702366,86.8809527 11.7488847,86.9813981 11.6037946,87.1227679 C11.4587046,87.2641376 11.3861607,87.4799093 11.3861607,87.7700893 C11.3861607,88.0007452 11.4698652,88.1923355 11.6372768,88.3448661 C11.8046883,88.4973966 12.02046,88.616443 12.2845982,88.7020089 C12.5487364,88.7875748 12.8407722,88.8694193 13.1607143,88.9475446 C13.4806564,89.02567 13.8005936,89.1205352 14.1205357,89.2321429 C14.4404778,89.3437506 14.7325136,89.4832581 14.9966518,89.6506696 C15.26079,89.8180812 15.4765617,90.0561741 15.6439732,90.3649554 C15.8113848,90.6737367 15.8950893,91.0401765 15.8950893,91.4642857 C15.8950893,93.7262018 14.5446564,94.8571429 11.84375,94.8571429 C11.3303546,94.8571429 10.8467285,94.8106403 10.3928571,94.7176339 C9.93898583,94.6246275 9.50744252,94.4720993 9.09821429,94.2600446 C8.68898605,94.04799 8.36346847,93.7429335 8.12165179,93.3448661 C7.8798351,92.9467986 7.75892857,92.472473 7.75892857,91.921875 C7.75892857,90.6941903 8.43600513,89.8571451 9.79017857,89.4107143 L9.79017857,89.3660714 C9.29166417,89.0610104 9.04241071,88.5922651 9.04241071,87.9598214 C9.04241071,87.1488055 9.27678337,86.6391379 9.74553571,86.4308036 L9.74553571,86.3861607 C9.20981875,86.2075884 8.76525474,85.8039466 8.41183036,85.1752232 C8.05840597,84.5464998 7.88169643,83.9308066 7.88169643,83.328125 C7.88169643,82.2938936 8.23511551,81.4326671 8.94196429,80.7444196 C9.64881306,80.0561722 10.5230603,79.7120536 11.5647321,79.7120536 C12.2790214,79.7120536 12.9412172,79.886903 13.5513393,80.2366071 C14.2805096,80.2366071 15.0915134,80.0617577 15.984375,79.7120536 Z M19.5334821,89.5446429 L17.0558036,89.5446429 C17.0855656,89.2098198 17.1004464,88.7113128 17.1004464,88.0491071 L17.1004464,81.2522321 C17.1004464,80.5528239 17.0855656,80.0766382 17.0558036,79.8236607 L19.5334821,79.8236607 C19.5037201,80.0691977 19.4888393,80.5305026 19.4888393,81.2075893 L19.4888393,88.0491071 C19.4888393,88.7113128 19.5037201,89.2098198 19.5334821,89.5446429 Z M26.2410714,87.0669643 L26.2410714,89.2544643 C25.712795,89.5446443 25.06548,89.6897321 24.2991071,89.6897321 C23.8377953,89.6897321 23.4397338,89.6153281 23.1049107,89.4665179 C22.7700876,89.3177076 22.5096735,89.1316975 22.3236607,88.9084821 C22.1376479,88.6852667 21.9906999,88.3950911 21.8828125,88.0379464 C21.7749251,87.6808018 21.7061013,87.3385433 21.6763393,87.0111607 C21.6465772,86.6837781 21.6316964,86.3005974 21.6316964,85.8616071 L21.6316964,81.9441964 L21.6540179,81.9441964 L21.6540179,81.8995536 C21.6019343,81.8995536 21.5312504,81.8958334 21.4419643,81.8883929 C21.3526781,81.8809523 21.2857145,81.8772321 21.2410714,81.8772321 C21.0848206,81.8772321 20.8653288,81.8995533 20.5825893,81.9441964 L20.5825893,79.8236607 L21.6540179,79.8236607 L21.6540179,78.9754464 C21.6540179,78.5736587 21.6316967,78.2425608 21.5870536,77.9821429 L24.1205357,77.9821429 C24.0758926,78.2872039 24.0535714,78.9010371 24.0535714,79.8236607 L25.9620536,79.8236607 L25.9620536,81.9441964 C25.8504459,81.9441964 25.6886171,81.936756 25.4765625,81.921875 C25.2645079,81.906994 25.1063993,81.8995536 25.0022321,81.8995536 L24.0535714,81.8995536 L24.0535714,85.9732143 C24.0535714,86.9479215 24.3772289,87.4352679 25.0245536,87.4352679 C25.4784249,87.4352679 25.8839268,87.3125012 26.2410714,87.0669643 Z M19.8125,76.4977679 C19.8125,76.9293176 19.6674122,77.306918 19.3772321,77.6305804 C19.0870521,77.9542427 18.7299128,78.1160714 18.3058036,78.1160714 C17.8742538,78.1160714 17.5096741,77.9542427 17.2120536,77.6305804 C16.914433,77.306918 16.765625,76.9293176 16.765625,76.4977679 C16.765625,76.0587776 16.9125729,75.6755969 17.2064732,75.3482143 C17.5003735,75.0208317 17.8668133,74.8571429 18.3058036,74.8571429 C18.7373533,74.8571429 19.0963527,75.0226918 19.3828125,75.3537946 C19.6692723,75.6848975 19.8125,76.0662181 19.8125,76.4977679 Z" id=""></path>
	</g>
</svg>
