<?xml version="1.0" encoding="UTF-8"?>
<svg width="21px" height="18px" viewBox="0 0 21 18" version="1.1" xmlns="http://www.w3.org/2000/svg" xmlns:xlink="http://www.w3.org/1999/xlink">
	<g id="Artboard" transform="translate(-6.000000, -42.000000)">
		<path d="M18,42 C13.03,42 9,46.03 9,51 L6,51 L9.89,54.89 L9.96,55.03 L14,51 L11,51 C11,47.13 14.13,44 18,44 C21.87,44 25,47.13 25,51 C25,54.87 21.87,58 18,58 C16.07,58 14.32,57.21 13.06,55.94 L11.64,57.36 C13.27,58.99 15.51,60 18,60 C22.97,60 27,55.97 27,51 C27,46.03 22.97,42 18,42 L18,42 Z M17,47 L17,52 L21.28,54.54 L22,53.33 L18.5,51.25 L18.5,47 L17,47 L17,47 Z" id="Shape"></path>
	</g>
</svg>
