<?xml version="1.0" encoding="UTF-8"?>
<svg width="22px" height="12px" viewBox="0 0 22 12" version="1.1" xmlns="http://www.w3.org/2000/svg" xmlns:xlink="http://www.w3.org/1999/xlink">
	<g id="Artboard" transform="translate(-5.000000, -5.000000)">
		<path d="M25,5 L7,5 C5.9,5 5,5.9 5,7 L5,15 C5,16.1 5.9,17 7,17 L25,17 C26.1,17 27,16.1 27,15 L27,7 C27,5.9 26.1,5 25,5 L25,5 Z M25,15 L7,15 L7,7 L9,7 L9,11 L11,11 L11,7 L13,7 L13,11 L15,11 L15,7 L17,7 L17,11 L19,11 L19,7 L21,7 L21,11 L23,11 L23,7 L25,7 L25,15 L25,15 Z" id="Shape"></path>
	</g>
</svg>
