<?xml version="1.0" encoding="UTF-8"?>
<svg width="18px" height="18px" viewBox="0 0 18 18" version="1.1" xmlns="http://www.w3.org/2000/svg" xmlns:xlink="http://www.w3.org/1999/xlink">
	<g id="Artboard" transform="translate(-64.000000, -104.000000)">
		<path d="M64,114 L66,114 L66,112 L64,112 L64,114 L64,114 Z M64,118 L66,118 L66,116 L64,116 L64,118 L64,118 Z M66,122 L66,120 L64,120 C64,121.1 64.89,122 66,122 L66,122 Z M64,110 L66,110 L66,108 L64,108 L64,110 L64,110 Z M76,122 L78,122 L78,120 L76,120 L76,122 L76,122 Z M80,104 L70,104 C68.89,104 68,104.9 68,106 L68,116 C68,117.1 68.89,118 70,118 L80,118 C81.1,118 82,117.1 82,116 L82,106 C82,104.9 81.1,104 80,104 L80,104 Z M80,116 L70,116 L70,106 L80,106 L80,116 L80,116 Z M72,122 L74,122 L74,120 L72,120 L72,122 L72,122 Z M68,122 L70,122 L70,120 L68,120 L68,122 L68,122 Z" id="Shape"></path>
	</g>
</svg>
