<?xml version="1.0" encoding="UTF-8"?>
<svg width="18px" height="18px" viewBox="0 0 18 18" version="1.1" xmlns="http://www.w3.org/2000/svg" xmlns:xlink="http://www.w3.org/1999/xlink">
	<g id="Artboard" transform="translate(-69.000000, -77.000000)">
		<path d="M69,87 L71,87 L71,85 L69,85 L69,87 L69,87 Z M69,91 L71,91 L71,89 L69,89 L69,91 L69,91 Z M71,95 L71,93 L69,93 C69,94.1 69.89,95 71,95 L71,95 Z M69,83 L71,83 L71,81 L69,81 L69,83 L69,83 Z M81,95 L83,95 L83,93 L81,93 L81,95 L81,95 Z M85,77 L75,77 C73.89,77 73,77.9 73,79 L73,89 C73,90.1 73.89,91 75,91 L85,91 C86.1,91 87,90.1 87,89 L87,79 C87,77.9 86.1,77 85,77 L85,77 Z M85,89 L75,89 L75,79 L85,79 L85,89 L85,89 Z M77,95 L79,95 L79,93 L77,93 L77,95 L77,95 Z M73,95 L75,95 L75,93 L73,93 L73,95 L73,95 Z" id="Shape" transform="translate(78.000000, 86.000000) scale(-1, 1) translate(-78.000000, -86.000000) "></path>
	</g>
</svg>
