<?xml version="1.0" encoding="UTF-8"?>
<svg width="20px" height="15px" viewBox="0 0 20 15" version="1.1" xmlns="http://www.w3.org/2000/svg" xmlns:xlink="http://www.w3.org/1999/xlink">
	<g id="Artboard" transform="translate(-149.000000, -105.000000)">
		<path d="M165,105 L161,109 L164,109 L164,116 C164,117.1 163.1,118 162,118 C160.9,118 160,117.1 160,116 L160,109 C160,106.79 158.21,105 156,105 C153.79,105 152,106.79 152,109 L152,116 L149,116 L153,120 L157,116 L154,116 L154,109 C154,107.9 154.9,107 156,107 C157.1,107 158,107.9 158,109 L158,116 C158,118.21 159.79,120 162,120 C164.21,120 166,118.21 166,116 L166,109 L169,109 L165,105 L165,105 Z" id="Shape"></path>
	</g>
</svg>
