<?xml version="1.0" encoding="UTF-8"?>
<svg width="18px" height="18px" viewBox="0 0 18 18" version="1.1" xmlns="http://www.w3.org/2000/svg" xmlns:xlink="http://www.w3.org/1999/xlink">
	<g id="Artboard" transform="translate(-94.000000, -76.000000)">
		<path d="M100,80 L98,80 L98,82 L100,82 L100,80 L100,80 Z M100,84 L98,84 L98,86 L100,86 L100,84 L100,84 Z M100,76 C98.89,76 98,76.9 98,78 L100,78 L100,76 L100,76 Z M104,88 L102,88 L102,90 L104,90 L104,88 L104,88 Z M110,76 L110,78 L112,78 C112,76.9 111.1,76 110,76 L110,76 Z M104,76 L102,76 L102,78 L104,78 L104,76 L104,76 Z M100,90 L100,88 L98,88 C98,89.1 98.89,90 100,90 L100,90 Z M110,86 L112,86 L112,84 L110,84 L110,86 L110,86 Z M110,82 L112,82 L112,80 L110,80 L110,82 L110,82 Z M110,90 C111.1,90 112,89.1 112,88 L110,88 L110,90 L110,90 Z M96,80 L94,80 L94,92 C94,93.1 94.89,94 96,94 L108,94 L108,92 L96,92 L96,80 L96,80 Z M106,78 L108,78 L108,76 L106,76 L106,78 L106,78 Z M106,90 L108,90 L108,88 L106,88 L106,90 L106,90 Z" id="Shape" transform="translate(103.000000, 85.000000) scale(-1, 1) translate(-103.000000, -85.000000) "></path>
	</g>
</svg>
