<?xml version="1.0" encoding="UTF-8"?>
<svg width="18px" height="18px" viewBox="0 0 18 18" version="1.1" xmlns="http://www.w3.org/2000/svg" xmlns:xlink="http://www.w3.org/1999/xlink">
	<g id="Artboard" transform="translate(-98.000000, -104.000000)">
		<path d="M104,108 L102,108 L102,110 L104,110 L104,108 L104,108 Z M104,112 L102,112 L102,114 L104,114 L104,112 L104,112 Z M104,104 C102.89,104 102,104.9 102,106 L104,106 L104,104 L104,104 Z M108,116 L106,116 L106,118 L108,118 L108,116 L108,116 Z M114,104 L114,106 L116,106 C116,104.9 115.1,104 114,104 L114,104 Z M108,104 L106,104 L106,106 L108,106 L108,104 L108,104 Z M104,118 L104,116 L102,116 C102,117.1 102.89,118 104,118 L104,118 Z M114,114 L116,114 L116,112 L114,112 L114,114 L114,114 Z M114,110 L116,110 L116,108 L114,108 L114,110 L114,110 Z M114,118 C115.1,118 116,117.1 116,116 L114,116 L114,118 L114,118 Z M100,108 L98,108 L98,120 C98,121.1 98.89,122 100,122 L112,122 L112,120 L100,120 L100,108 L100,108 Z M110,106 L112,106 L112,104 L110,104 L110,106 L110,106 Z M110,118 L112,118 L112,116 L110,116 L110,118 L110,118 Z" id="Shape"></path>
	</g>
</svg>
