<?xml version="1.0" encoding="UTF-8" standalone="no"?>
<svg width="19px" height="19px" viewBox="0 0 19 19" version="1.1" xmlns="http://www.w3.org/2000/svg" xmlns:xlink="http://www.w3.org/1999/xlink">
    <!-- Generator: Sketch 40 (33762) - http://www.bohemiancoding.com/sketch -->
    <title>close-icon</title>
    <desc>Created with Sketch.</desc>
    <defs></defs>
    <g id="Page-1" stroke="none" stroke-width="1" fill="none" fill-rule="evenodd">
        <g id="SFL---My-Achievements---Certificate" transform="translate(-1099.000000, -200.000000)" fill="#FFFFFF">
            <path d="M1105.75291,209.227786 L1099.10114,215.879554 C1098.96248,216.018222 1098.96891,216.232371 1099.10497,216.368425 L1101.08715,218.350602 C1101.22715,218.490609 1101.44208,218.488369 1101.57602,218.354427 L1108.22779,211.70266 L1114.87955,218.354427 C1115.01822,218.493096 1115.23237,218.486657 1115.36843,218.350602 L1117.3506,216.368425 C1117.49061,216.228419 1117.48837,216.013496 1117.35443,215.879554 L1110.70266,209.227786 L1117.35443,202.576018 C1117.4931,202.43735 1117.48666,202.223201 1117.3506,202.087146 L1115.36843,200.104969 C1115.22842,199.964963 1115.0135,199.967202 1114.87955,200.101145 L1108.22779,206.752912 L1101.57602,200.101145 C1101.43735,199.962476 1101.2232,199.968915 1101.08715,200.104969 L1099.10497,202.087146 C1098.96496,202.227153 1098.9672,202.442076 1099.10114,202.576018 L1105.75291,209.227786 Z" id="close-icon"></path>
        </g>
    </g>
</svg>