<?xml version="1.0" encoding="UTF-8" standalone="no"?>
<svg width="77px" height="77px" viewBox="0 0 77 77" version="1.1" xmlns="http://www.w3.org/2000/svg" xmlns:xlink="http://www.w3.org/1999/xlink">
    <!-- Generator: Sketch 40 (33762) - http://www.bohemiancoding.com/sketch -->
    <title>exclamation-outline-icon</title>
    <desc>Created with Sketch.</desc>
    <defs></defs>
    <g id="Page-1" stroke="none" stroke-width="1" fill="none" fill-rule="evenodd" fill-opacity="0.4">
        <g id="Group-23" transform="translate(-517.000000, -1450.000000)" fill="#000000">
            <g id="exclamation-outline-icon" transform="translate(517.000000, 1450.000000)">
                <path d="M38.5,0 C17.2696563,0 0,17.2696563 0,38.5 C0,59.7303438 17.2696563,77 38.5,77 C59.7303438,77 77,59.7303438 77,38.5 C77,17.2696563 59.7303438,0 38.5,0 L38.5,0 Z M38.5,73.92 C18.9203437,73.92 3.08,58.0796562 3.08,38.5 C3.08,18.9203437 18.9203437,3.08 38.5,3.08 C58.0796562,3.08 73.92,18.9203437 73.92,38.5 C73.92,58.0796562 58.0796562,73.92 38.5,73.92 L38.5,73.92 Z M36.5196563,18.8096562 L40.4803438,18.8096562 L40.4803438,46.4189687 L36.5196563,46.4189687 L36.5196563,18.8096562 L36.5196563,18.8096562 Z M38.5,52.36 C36.8493125,52.36 35.5306875,53.6810313 35.5306875,55.3293125 C35.5306875,56.9775938 36.8517188,58.298625 38.5,58.298625 C40.1506875,58.298625 41.4693125,56.9775938 41.4693125,55.3293125 C41.4693125,53.6810313 40.1482813,52.36 38.5,52.36 L38.5,52.36 Z" id="Shape"></path>
            </g>
        </g>
    </g>
</svg>