<?xml version="1.0" encoding="UTF-8" standalone="no"?>
<svg width="24px" height="23px" viewBox="0 0 24 23" version="1.1" xmlns="http://www.w3.org/2000/svg" xmlns:xlink="http://www.w3.org/1999/xlink">
    <!-- Generator: Sketch 40 (33762) - http://www.bohemiancoding.com/sketch -->
    <title>print-outline-icon</title>
    <desc>Created with Sketch.</desc>
    <defs></defs>
    <g id="Page-1" stroke="none" stroke-width="1" fill="none" fill-rule="evenodd">
        <g id="SFL---My-Achievements---Certificate" transform="translate(-1041.000000, -198.000000)" fill="#FFFFFF">
            <g id="print-outline-icon" transform="translate(1041.000000, 198.000000)">
                <path d="M23.3563636,19.32 L18.3185455,19.32 L18.3185455,23 L5.496,23 L5.496,19.32 L0.458181818,19.32 C0.205090909,19.32 0,19.1137188 0,18.86 L0,5.06 C0,4.8055625 0.204363636,4.6 0.458181818,4.6 L5.496,4.6 L5.496,0 L18.3185455,0 L18.3185455,4.6 L23.3563636,4.6 C23.6094545,4.6 23.8145455,4.80628125 23.8145455,5.06 L23.8145455,18.86 C23.8145455,19.1144375 23.6094545,19.32 23.3563636,19.32 L23.3563636,19.32 Z M6.41163636,22.08 L17.4029091,22.08 L17.4029091,13.8 L6.41163636,13.8 L6.41163636,22.08 L6.41163636,22.08 Z M17.4029091,0.92 L6.41163636,0.92 L6.41163636,4.6 L17.4029091,4.6 L17.4029091,0.92 L17.4029091,0.92 Z M22.8981818,5.52 L18.3185455,5.52 L5.496,5.52 L0.916363636,5.52 L0.916363636,18.4 L5.496,18.4 L5.496,12.88 L18.3185455,12.88 L18.3185455,18.4 L22.8981818,18.4 L22.8981818,5.52 L22.8981818,5.52 Z M7.32727273,10.12 C6.82109091,10.12 6.41163636,9.70815625 6.41163636,9.2 C6.41163636,8.69184375 6.82109091,8.28 7.32727273,8.28 C7.83272727,8.28 8.24363636,8.69184375 8.24363636,9.2 C8.24363636,9.70815625 7.83272727,10.12 7.32727273,10.12 L7.32727273,10.12 Z M4.57963636,10.12 C4.07345455,10.12 3.664,9.70815625 3.664,9.2 C3.664,8.69184375 4.07345455,8.28 4.57963636,8.28 C5.08509091,8.28 5.496,8.69184375 5.496,9.2 C5.496,9.70815625 5.08509091,10.12 4.57963636,10.12 L4.57963636,10.12 Z" id="Shape"></path>
            </g>
        </g>
    </g>
</svg>